<?xml version="1.0" encoding="iso-8859-1"?>
<!-- Generator: Adobe Illustrator 16.0.0, SVG Export Plug-In . SVG Version: 6.00 Build 0)  -->
<!DOCTYPE svg PUBLIC "-//W3C//DTD SVG 1.1//EN" "http://www.w3.org/Graphics/SVG/1.1/DTD/svg11.dtd">
<svg xmlns="http://www.w3.org/2000/svg" xmlns:xlink="http://www.w3.org/1999/xlink" version="1.1" id="Capa_1" x="0px" y="0px" width="512px" height="512px" viewBox="0 0 612.012 612.012" style="enable-background:new 0 0 612.012 612.012;" xml:space="preserve">
<g>
	<g id="vimeo">
		<g>
			<path d="M593.772,84.292c-28.727-42.836-79.921-44.609-82.081-44.669l-5.215-0.074c-140.071,0-174.206,147.073-174.534,148.548     c-1.132,5.125,0.521,10.475,4.351,14.08c3.844,3.606,9.268,4.917,14.318,3.457c30.172-8.687,51.538-7.986,59.227,1.833     c5.899,7.539,4.678,20.442,3.575,25.583c-44.922,113.565-72.813,127.124-77.939,128.688     c-15.392-10.668-38.65-100.141-50.495-195.11C271.315,68.35,228.807,47.729,195.581,47.729c-21.753,0-39.052,9.223-43.492,11.815     C95.978,85.529,7.861,177.579,4.122,181.512c-5.245,5.498-5.513,14.035-0.641,19.861l28.056,33.464     c2.742,3.278,6.779,5.215,11.056,5.319c4.067,0.209,8.389-1.624,11.294-4.768c19.086-20.621,30.157-22.841,34.031-22.841     c5.691,0,8.493,4.932,9.088,6.094c32.496,65.305,54.696,159.172,54.935,160.215c42.285,174.742,99.41,193.605,122.012,193.605     c2.697,0,4.351-0.283,4.321-0.298c161.914-20.74,305.278-306.946,311.878-320.416     C618.029,178.607,619.251,122.271,593.772,84.292z M562.871,239.799c-1.4,2.831-142.276,284.299-288.709,302.834l-0.209,14.899     v-14.899c-2.116,0-52.178-1.938-93.018-170.704c-0.923-3.979-23.198-98.129-57.035-166.131     c-3.919-8.567-15.898-23.064-35.982-23.064c-13.917,0-28.384,6.765-43.924,20.576l-9.014-10.757     c24.048-24.212,89.174-87.595,130.208-106.234c0.596-0.268,1.162-0.581,1.713-0.924c0.119-0.074,13.052-7.867,28.667-7.867     c38.783,0,53.981,50.688,59.866,93.003c7.554,60.775,29.501,203.528,70.178,219.56c1.832,0.76,4.887,1.654,8.984,1.654     c32.02,0,67.986-50.048,106.919-148.743c0.224-0.551,0.402-1.118,0.566-1.699c0.819-3.129,7.494-31.11-8.612-51.97     c-12.649-16.375-34.09-22.677-64.664-18.192c14.721-36.25,53.013-101.794,137.673-101.794l4.439,0.06     c0.373,0.015,37.86,1.296,58.094,31.468C588.513,129.959,586.204,178.443,562.871,239.799z" fill="#FFFFFF"/>
		</g>
	</g>
</g>
<g>
</g>
<g>
</g>
<g>
</g>
<g>
</g>
<g>
</g>
<g>
</g>
<g>
</g>
<g>
</g>
<g>
</g>
<g>
</g>
<g>
</g>
<g>
</g>
<g>
</g>
<g>
</g>
<g>
</g>
</svg>
